Patient4_TMGait_0pt6_01_right_48_GRF.mot
version=1
nRows=45
nColumns=19
inDegrees=no
endheader
time	F1x	F1y	F1z	M1x	M1y	M1z	F2x	F2y	F2z	M2x	M2y	M2z	EC1x	EC1y	EC1z	EC2x	EC2y	EC2z
57.83	-30.5275	750.515	75.4258	-247.341	-78.1642	757.5224	-9.4073	24.3378	-5.7035	7.761	10.7076	33.6806	-0.0592	0.0182	-0.0073	-0.0462	0.0165	0.9585
57.8426	-21.9924	743.5978	69.0793	-244.6576	-70.007	750.2203	-6.4993	17.0397	-3.9996	5.5221	7.4319	23.5603	-0.0592	0.0182	-0.0073	-0.0462	0.0165	0.9585
57.8551	-14.5501	736.048	63.7032	-241.643	-62.8832	741.5537	-4.0435	10.8966	-2.4961	3.6261	4.601	15.0001	-0.0592	0.0182	-0.0073	-0.0462	0.0165	0.9585
57.8677	-8.6098	728.7094	59.5568	-238.5953	-57.1648	732.356	-2.1616	6.2436	-1.3152	2.1867	2.4045	8.4724	-0.0592	0.0182	-0.0073	-0.0462	0.0165	0.9585
57.8803	-4.1916	722.3459	56.7147	-235.7921	-52.9617	723.474	-0.87845	3.062	-0.4787	1.2037	0.86738	3.9741	-0.0592	0.0182	-0.0073	-0.0462	0.0165	0.9585
57.8929	-1.0598	717.4882	54.9809	-233.4408	-50.0686	715.5327	-0.094111	1.1111	0.046996	0.60447	-0.089584	1.1749	-0.0592	0.0182	-0.0073	-0.0462	0.0165	0.9585
57.9054	1.1049	714.369	54.1764	-231.6468	-48.2622	708.8659	0.28826	0.077383	0.32046	0.2891	-0.58043	-0.3425	-0.0592	0.0182	-0.0073	-0.0462	0.0165	0.9585
57.918	2.7118	713.0078	54.0162	-230.4428	-47.1915	703.5606	0.37956	-0.37328	0.41275	0.14805	-0.73371	-1.029	-0.0592	0.0182	-0.0073	-0.0462	0.0165	0.9585
57.9306	4.129	713.2706	54.3185	-229.7997	-46.5997	699.5468	0.28258	-0.56057	0.37862	0.072584	-0.65733	-1.3129	-0.0592	0.0182	-0.0073	-0.0462	0.0165	0.9585
57.9431	5.7142	714.9689	54.8608	-229.6647	-46.1892	696.6425	0.067229	-0.74061	0.27333	-0.031444	-0.4439	-1.5221	-0.0592	0.0182	-0.0073	-0.0462	0.0165	0.9585
57.9557	7.7328	717.9292	55.5458	-229.9755	-45.7907	694.6882	-0.18759	-1.1477	0.13406	-0.251	-0.16648	-1.9499	-0.0592	0.0182	-0.0073	-0.0462	0.0165	0.9585
57.9683	10.3994	722.0337	56.2556	-230.6824	-45.2304	693.561	-0.45187	-1.9291	-0.0058974	-0.64735	0.11718	-2.7793	-0.0592	0.0182	-0.0073	-0.0462	0.0165	0.9585
57.9809	13.7935	727.2126	56.9695	-231.747	-44.4539	693.2014	-0.6393	-3.1923	-0.13019	-1.2618	0.35435	-4.1647	-0.0592	0.0182	-0.0073	-0.0462	0.0165	0.9585
57.9934	17.9274	733.4308	57.6439	-233.1435	-43.409	693.5898	-0.70158	-4.922	-0.2165	-2.0863	0.4957	-6.0883	-0.0592	0.0182	-0.0073	-0.0462	0.0165	0.9585
58.006	22.6921	740.5639	58.3015	-234.8214	-42.1408	694.6691	-0.52876	-6.989	-0.25356	-3.0557	0.47706	-8.4125	-0.0592	0.0182	-0.0073	-0.0462	0.0165	0.9585
58.0186	27.8871	748.3193	58.9301	-236.6851	-40.6921	696.25	-0.02544	-9.0216	-0.21562	-4.0028	0.22051	-10.7018	-0.0592	0.0182	-0.0073	-0.0462	0.0165	0.9585
58.0311	33.2369	756.1861	59.5428	-238.574	-39.1515	697.9666	0.93577	-10.3826	-0.071824	-4.6383	-0.363	-12.231	-0.0592	0.0182	-0.0073	-0.0462	0.0165	0.9585
58.0437	38.4753	763.5039	60.1117	-240.2868	-37.5793	699.3103	2.4623	-10.0485	0.22705	-4.5061	-1.3737	-11.8202	-0.0592	0.0182	-0.0073	-0.0462	0.0165	0.9585
58.0563	43.3899	769.5147	60.6273	-241.5961	-36.0459	699.6455	4.6174	-6.5886	0.73051	-2.9664	-2.8918	-7.8206	-0.0592	0.0182	-0.0073	-0.0462	0.0165	0.9585
58.0689	47.8624	773.4328	61.041	-242.2697	-34.5627	698.3044	7.366	1.817	1.487	0.79641	-4.9459	1.8744	-0.0592	0.0182	-0.0073	-0.0462	0.0165	0.9585
58.0814	51.8928	774.3843	61.2868	-242.0514	-33.0925	694.5241	10.4877	17.2583	2.5262	7.7166	-7.4542	19.69	-0.0592	0.0182	-0.0073	-0.0462	0.0165	0.9585
58.094	55.512	771.3669	61.2427	-240.6458	-31.5402	687.4489	13.503	41.7354	3.8213	18.6921	-10.1511	47.9261	-0.0592	0.0182	-0.0073	-0.0462	0.0165	0.9585
58.1066	58.7661	763.2375	60.7327	-237.7147	-29.7613	676.1049	15.5286	76.629	5.2628	34.3414	-12.507	88.172	-0.0592	0.0182	-0.0073	-0.0462	0.0165	0.9585
58.1191	61.6324	748.7581	59.5364	-232.89	-27.5941	659.4765	15.3537	121.9017	6.6798	54.6478	-13.7784	140.3708	-0.0592	0.0182	-0.0073	-0.0462	0.0165	0.9585
58.1317	63.9989	726.7109	57.4049	-225.8093	-24.8796	636.5918	11.653	175.1317	7.8118	78.5223	-13.0883	201.7077	-0.0592	0.0182	-0.0073	-0.0462	0.0165	0.9585
58.1443	65.6175	696.1032	54.1654	-216.1746	-21.5661	606.7074	4.2709	231.1982	8.0314	103.6504	-9.6954	266.2441	-0.0592	0.0182	-0.0073	-0.0462	0.0165	0.9585
58.1569	66.1762	656.4752	49.7445	-203.8441	-17.704	569.5344	-4.789	283.8611	6.5539	127.1939	-3.6692	326.6616	-0.0592	0.0182	-0.0073	-0.0462	0.0165	0.9585
58.1694	65.3601	608.1507	44.321	-188.899	-13.5506	525.441	-13.335	328.0876	3.3722	146.9002	3.9391	376.902	-0.0592	0.0182	-0.0073	-0.0462	0.0165	0.9585
58.182	62.9663	552.2947	38.2539	-171.6637	-9.4601	475.4775	-20.0367	362.419	-1.1332	162.1294	12.0707	415.0665	-0.0592	0.0182	-0.0073	-0.0462	0.0165	0.9585
58.1946	58.9498	490.7991	32.0331	-152.6792	-5.8312	421.2725	-24.6366	389.1195	-6.0657	173.9221	19.6101	443.7239	-0.0592	0.0182	-0.0073	-0.0462	0.0165	0.9585
58.2071	53.4097	426.0907	26.0621	-132.6594	-2.9378	364.8718	-27.4852	412.3532	-10.7252	184.1706	25.9496	467.7056	-0.0592	0.0182	-0.0073	-0.0462	0.0165	0.9585
58.2197	46.5442	360.8518	20.6525	-112.4141	-0.94971	308.5021	-29.1955	436.5388	-14.6865	194.8599	30.9226	492.1141	-0.0592	0.0182	-0.0073	-0.0462	0.0165	0.9585
58.2323	38.6878	297.7742	15.9446	-92.7786	0.14591	254.3682	-30.3162	465.2842	-18.0032	207.579	34.8605	521.0798	-0.0592	0.0182	-0.0073	-0.0462	0.0165	0.9585
58.2449	30.3075	239.2774	12.0456	-74.5208	0.42694	204.4283	-31.3017	500.7813	-20.9353	223.2606	38.2861	557.122	-0.0592	0.0182	-0.0073	-0.0462	0.0165	0.9585
58.2574	21.9894	187.2078	8.9704	-58.2407	0.081573	160.1283	-32.5122	543.4713	-23.9467	242.0281	41.8833	600.8433	-0.0592	0.0182	-0.0073	-0.0462	0.0165	0.9585
58.27	14.2821	142.601	6.7036	-44.283	-0.69117	122.2415	-34.1473	591.9123	-27.4753	263.1711	46.2268	650.7563	-0.0592	0.0182	-0.0073	-0.0462	0.0165	0.9585
58.2826	7.6444	105.6319	5.0917	-32.7229	-1.6159	90.8265	-36.3933	643.2469	-31.8427	285.3565	51.7243	703.8463	-0.0592	0.0182	-0.0073	-0.0462	0.0165	0.9585
58.2951	2.3046	75.7714	3.9738	-23.4037	-2.4903	65.405	-39.2945	694.0088	-37.0716	307.0128	58.41	756.3946	-0.0592	0.0182	-0.0073	-0.0462	0.0165	0.9585
58.3077	-1.6367	52.1564	3.1602	-16.0562	-3.134	45.2312	-42.7849	740.9518	-42.8869	326.6903	65.9423	804.938	-0.0592	0.0182	-0.0073	-0.0462	0.0165	0.9585
58.3203	-4.2182	33.9047	2.5133	-10.3993	-3.4516	29.588	-46.5743	781.3192	-48.7551	343.2047	73.6185	846.4851	-0.0592	0.0182	-0.0073	-0.0462	0.0165	0.9585
58.3329	-5.4916	20.2149	1.9253	-6.1797	-3.3816	17.8239	-50.2706	812.9763	-54.1439	355.6678	80.6877	878.7085	-0.0592	0.0182	-0.0073	-0.0462	0.0165	0.9585
58.3454	-5.6313	10.4051	1.3784	-3.1805	-2.9735	9.3849	-53.4205	834.3862	-58.6518	363.4776	86.5201	899.8822	-0.0592	0.0182	-0.0073	-0.0462	0.0165	0.9585
58.358	-4.9728	3.8843	0.88689	-1.21	-2.3547	3.7677	-55.6295	844.7145	-62.0952	366.349	90.741	909.0415	-0.0592	0.0182	-0.0073	-0.0462	0.0165	0.9585
58.3706	-3.9806	0.030453	0.50325	-0.064997	-1.7175	0.4488	-56.6052	843.9878	-64.4043	364.3761	93.1565	906.1486	-0.0592	0.0182	-0.0073	-0.0462	0.0165	0.9585
58.3831	-2.9428	-1.8509	0.22835	0.478	-1.1588	-1.1607	-56.2183	833.2281	-65.6191	358.0848	93.7683	892.2616	-0.0592	0.0182	-0.0073	-0.0462	0.0165	0.9585
